<svg width="25" height="25" viewBox="0 0 25 25" fill="none" xmlns="http://www.w3.org/2000/svg">
<circle cx="12.5" cy="12.5" r="12.5" fill="#9CD9FB"/>
<path d="M18.0555 6.94444C18.8194 6.94444 19.4444 7.5625 19.4444 8.33333V15.2778C19.4444 16.0486 18.8264 16.6667 18.0555 16.6667H20.8333V18.0556H4.16666V16.6667H6.94443C6.18055 16.6667 5.55555 16.0486 5.55555 15.2778V8.33333C5.55555 7.5625 6.1736 6.94444 6.94443 6.94444H18.0555ZM18.0555 8.33333H6.94443V15.2778H18.0555V8.33333ZM12.5 12.5C14.0347 12.5 15.2778 13.125 15.2778 13.8889V14.5833H9.72221V13.8889C9.72221 13.125 10.9653 12.5 12.5 12.5ZM12.5 9.02778C13.2708 9.02778 13.8889 9.65278 13.8889 10.4167C13.8889 11.1806 13.2708 11.8056 12.5 11.8056C11.7292 11.8056 11.1111 11.1875 11.1111 10.4167C11.1111 9.64583 11.7361 9.02778 12.5 9.02778Z" fill="#7B27E7"/>
</svg>
