<svg width="37" height="37" viewBox="0 0 37 37" fill="none" xmlns="http://www.w3.org/2000/svg">
<circle cx="18.5" cy="18.5" r="12.5" transform="rotate(45 18.5 18.5)" fill="#9CD9FB"/>
<path d="M21.055 14.92L22.5926 16.4576L25.9702 16.4524C26.0658 16.452 26.1607 16.4706 26.2491 16.507C26.3376 16.5435 26.418 16.5971 26.4857 16.6647C26.5533 16.7324 26.6069 16.8128 26.6433 16.9012C26.6798 16.9897 26.6983 17.0845 26.6979 17.1802L26.6928 19.83C26.6923 20.0215 26.6159 20.205 26.4805 20.3404C26.3451 20.4758 26.1616 20.5521 25.9702 20.5527L23.6176 20.5578L19.5174 16.4576L18.4923 17.4826C18.3564 17.6185 18.172 17.6949 17.9798 17.6949C17.7875 17.6949 17.6032 17.6185 17.4672 17.4826C17.3313 17.3467 17.2549 17.1623 17.2549 16.9701C17.2549 16.7778 17.3313 16.5935 17.4672 16.4576L19.0048 14.92C19.2767 14.6481 19.6454 14.4954 20.0299 14.4954C20.4144 14.4954 20.7831 14.6481 21.055 14.92ZM15.4171 14.4074L13.367 16.4576L11.0196 16.4576C10.8281 16.4581 10.6446 16.5344 10.5092 16.6698C10.3738 16.8052 10.2975 16.9887 10.2969 17.1802L10.2918 19.83C10.2914 19.9257 10.31 20.0205 10.3464 20.109C10.3828 20.1975 10.4364 20.2779 10.5041 20.3455C10.5717 20.4132 10.6521 20.4668 10.7406 20.5032C10.8291 20.5396 10.9239 20.5582 11.0196 20.5578L15.4171 20.5578L17.4672 22.6079C17.6032 22.7439 17.7875 22.8202 17.9798 22.8202C18.172 22.8202 18.3564 22.7439 18.4923 22.6079L19.0048 22.0954L19.5174 22.6079C19.6533 22.7439 19.8377 22.8202 20.0299 22.8202C20.2221 22.8202 20.4065 22.7439 20.5424 22.6079L21.055 22.0954L21.5675 22.6079C21.7034 22.7439 21.8878 22.8202 22.08 22.8202C22.2723 22.8202 22.4566 22.7439 22.5926 22.6079L23.1051 22.0954L19.5174 18.5077L19.0048 19.0202C18.733 19.2921 18.3643 19.4448 17.9798 19.4448C17.5953 19.4448 17.2266 19.2921 16.9547 19.0202L15.9296 17.9951C15.6578 17.7233 15.5051 17.3546 15.5051 16.9701C15.5051 16.5856 15.6578 16.2169 15.9296 15.945L17.4672 14.4074L15.4171 14.4074Z" fill="#7B27E7"/>
</svg>
